<svg width="16" height="16" viewBox="0 0 16 16" fill="none" xmlns="http://www.w3.org/2000/svg">
<path fill-rule="evenodd" clip-rule="evenodd" d="M15.3541 2.64592C15.4007 2.69236 15.4376 2.74754 15.4629 2.80828C15.4881 2.86903 15.501 2.93415 15.501 2.99992C15.501 3.06568 15.4881 3.13081 15.4629 3.19155C15.4376 3.2523 15.4007 3.30747 15.3541 3.35392L8.35414 10.3539C8.3077 10.4005 8.25252 10.4374 8.19178 10.4626C8.13103 10.4878 8.06591 10.5008 8.00014 10.5008C7.93438 10.5008 7.86925 10.4878 7.80851 10.4626C7.74776 10.4374 7.69259 10.4005 7.64614 10.3539L4.64614 7.35392C4.59966 7.30743 4.56278 7.25224 4.53762 7.1915C4.51246 7.13076 4.49951 7.06566 4.49951 6.99992C4.49951 6.93417 4.51246 6.86907 4.53762 6.80833C4.56278 6.74759 4.59966 6.6924 4.64614 6.64592C4.69263 6.59943 4.74782 6.56255 4.80856 6.53739C4.8693 6.51223 4.9344 6.49929 5.00014 6.49929C5.06589 6.49929 5.13099 6.51223 5.19173 6.53739C5.25247 6.56255 5.30766 6.59943 5.35414 6.64592L8.00014 9.29292L14.6461 2.64592C14.6926 2.59935 14.7478 2.56241 14.8085 2.5372C14.8693 2.512 14.9344 2.49902 15.0001 2.49902C15.0659 2.49902 15.131 2.512 15.1918 2.5372C15.2525 2.56241 15.3077 2.59935 15.3541 2.64592V2.64592Z" fill="#D9A90B"/>
<path fill-rule="evenodd" clip-rule="evenodd" d="M8.00001 2.49987C6.91221 2.49987 5.84884 2.82244 4.94437 3.42678C4.0399 4.03113 3.33495 4.89012 2.91867 5.89511C2.50239 6.9001 2.39347 8.00597 2.60569 9.07286C2.81791 10.1398 3.34173 11.1198 4.11092 11.889C4.88011 12.6581 5.86012 13.182 6.92701 13.3942C7.99391 13.6064 9.09978 13.4975 10.1048 13.0812C11.1098 12.6649 11.9687 11.96 12.5731 11.0555C13.1774 10.151 13.5 9.08766 13.5 7.99987C13.5 7.86726 13.5527 7.74008 13.6465 7.64631C13.7402 7.55255 13.8674 7.49987 14 7.49987C14.1326 7.49987 14.2598 7.55255 14.3536 7.64631C14.4473 7.74008 14.5 7.86726 14.5 7.99987C14.4998 9.4307 14.0275 10.8215 13.1564 11.9566C12.2852 13.0916 11.0638 13.9075 9.68173 14.2777C8.29961 14.6479 6.83396 14.5517 5.51209 14.0041C4.19021 13.4564 3.08597 12.4879 2.37064 11.2487C1.6553 10.0095 1.36883 8.56889 1.55566 7.1503C1.74249 5.73172 2.39218 4.41441 3.40396 3.40269C4.41575 2.39097 5.73309 1.74137 7.15169 1.55463C8.57029 1.36789 10.0109 1.65445 11.25 2.36987C11.3098 2.40112 11.3626 2.44415 11.4053 2.49634C11.448 2.54854 11.4797 2.60883 11.4984 2.6736C11.5172 2.73836 11.5227 2.80626 11.5146 2.8732C11.5065 2.94014 11.4849 3.00475 11.4511 3.06313C11.4174 3.12151 11.3722 3.17247 11.3182 3.21292C11.2643 3.25338 11.2027 3.28251 11.1372 3.29855C11.0717 3.3146 11.0036 3.31722 10.9371 3.30628C10.8706 3.29534 10.8069 3.27104 10.75 3.23487C9.91424 2.75156 8.96547 2.49798 8.00001 2.49987V2.49987Z" fill="#D9A90B"/>
</svg>
