<?xml version="1.0" encoding="utf-8"?>
<!-- Generator: Adobe Illustrator 27.9.0, SVG Export Plug-In . SVG Version: 6.00 Build 0)  -->
<svg version="1.1" id="Layer_1" xmlns="http://www.w3.org/2000/svg" xmlns:xlink="http://www.w3.org/1999/xlink" x="0px" y="0px"
	 viewBox="0 0 16 16" style="enable-background:new 0 0 16 16;" xml:space="preserve">
<style type="text/css">
	.st0{fill:#D9A90B;}
</style>
<path id="Check_circle" class="st0" d="M15.4,2.6c0,0,0.1,0.1,0.1,0.2c0,0.1,0,0.1,0,0.2c0,0.1,0,0.1,0,0.2c0,0.1-0.1,0.1-0.1,0.2
	l-7,7c0,0-0.1,0.1-0.2,0.1c-0.1,0-0.1,0-0.2,0c-0.1,0-0.1,0-0.2,0c-0.1,0-0.1-0.1-0.2-0.1l-3-3c0,0-0.1-0.1-0.1-0.2
	c0-0.1,0-0.1,0-0.2c0-0.1,0-0.1,0-0.2c0-0.1,0.1-0.1,0.1-0.2c0,0,0.1-0.1,0.2-0.1c0.1,0,0.1,0,0.2,0c0.1,0,0.1,0,0.2,0
	c0.1,0,0.1,0.1,0.2,0.1L8,9.3l6.6-6.6c0,0,0.1-0.1,0.2-0.1c0.1,0,0.1,0,0.2,0c0.1,0,0.1,0,0.2,0C15.3,2.6,15.3,2.6,15.4,2.6z M8,2.5
	c-1.1,0-2.2,0.3-3.1,0.9s-1.6,1.5-2,2.5C2.5,6.9,2.4,8,2.6,9.1c0.2,1.1,0.7,2,1.5,2.8c0.8,0.8,1.7,1.3,2.8,1.5
	c1.1,0.2,2.2,0.1,3.2-0.3c1-0.4,1.9-1.1,2.5-2c0.6-0.9,0.9-2,0.9-3.1c0-0.1,0.1-0.3,0.1-0.4c0.1-0.1,0.2-0.1,0.4-0.1
	s0.3,0.1,0.4,0.1c0.1,0.1,0.1,0.2,0.1,0.4c0,1.4-0.5,2.8-1.3,4c-0.9,1.1-2.1,2-3.5,2.3c-1.4,0.4-2.8,0.3-4.2-0.3
	c-1.3-0.5-2.4-1.5-3.1-2.8c-0.7-1.2-1-2.7-0.8-4.1c0.2-1.4,0.8-2.7,1.8-3.7c1-1,2.3-1.7,3.7-1.8s2.9,0.1,4.1,0.8
	c0.1,0,0.1,0.1,0.2,0.1c0,0.1,0.1,0.1,0.1,0.2c0,0.1,0,0.1,0,0.2c0,0.1,0,0.1-0.1,0.2c0,0.1-0.1,0.1-0.1,0.1c-0.1,0-0.1,0.1-0.2,0.1
	c-0.1,0-0.1,0-0.2,0c-0.1,0-0.1,0-0.2-0.1C9.9,2.8,9,2.5,8,2.5z"/>
</svg>
