<?xml version="1.0" encoding="UTF-8"?>
<svg id="Layer_2" data-name="Layer 2" xmlns="http://www.w3.org/2000/svg" xmlns:xlink="http://www.w3.org/1999/xlink" viewBox="0 0 329.31 276.62">
  <defs>
    <style>
      .cls-1 {
        fill: url(#GradientFill_2);
      }

      .cls-1, .cls-2 {
        fill-rule: evenodd;
        stroke-width: 0px;
      }

      .cls-2 {
        fill: #fff;
      }
    </style>
    <linearGradient id="GradientFill_2" data-name="GradientFill 2" x1="224.4" y1="172.91" x2="47.28" y2="22.86" gradientUnits="userSpaceOnUse">
      <stop offset="0" stop-color="#727a7f"/>
      <stop offset=".22" stop-color="#bdcfda"/>
      <stop offset="1" stop-color="#fff"/>
    </linearGradient>
  </defs>
  <g id="Camada_1" data-name="Camada 1">
    <g>
      <path class="cls-1" d="M84.01,0h88.19c61.21,0,118.34,46.92,118.34,110.46s-57.15,110.44-118.34,110.44h-88.19v-28.74l-2.41-3.17L0,81.95l25.87-29.53h25.71l-25.87,29.53,68.74,90.18,68.74-90.18-25.87-29.53h25.71l25.87,29.53-81.6,107.04-2.41,3.17v7.86h67.31c49.66,0,97.46-37.68,97.46-89.56S221.88,20.88,172.2,20.88h-67.31v31.54h-20.88V0Z"/>
      <path class="cls-2" d="M86.11,85.67l31.52,15.82c.34.17.54.49.54.87s-.2.7-.54.87l-31.52,15.82c-.31.16-.65.14-.95-.04-.3-.18-.46-.48-.46-.83v-31.64c0-.35.17-.65.46-.83.3-.18.64-.2.95-.04Z"/>
      <path class="cls-2" d="M6.75,276.13v-28.16h12.2c3.22,0,5.92.5,8.1,1.51,2.18,1.01,3.84,2.55,4.97,4.63,1.13,2.07,1.7,4.72,1.7,7.94s-.57,5.83-1.7,7.92c-1.13,2.09-2.79,3.64-4.97,4.65-2.18,1.01-4.88,1.51-8.1,1.51H6.75ZM15.8,269.38h2.99c.98,0,1.83-.14,2.56-.41.72-.27,1.32-.67,1.78-1.19.46-.52.8-1.16,1.02-1.92.22-.76.33-1.62.33-2.58v-2.46c0-.95-.11-1.81-.33-2.58-.22-.76-.56-1.41-1.02-1.92-.46-.52-1.06-.91-1.78-1.19-.72-.27-1.58-.41-2.56-.41h-2.99v14.65h0ZM37.77,276.13v-28.16h9.05v28.16h-9.05ZM49.44,276.13l10.27-28.16h10.52l10.27,28.16h-9.58l-1.19-3.97h-9.86l-1.19,3.97h-9.25ZM61.76,265.86h6.14l-1.35-4.5c-.11-.33-.23-.72-.37-1.19-.14-.46-.27-.96-.41-1.47-.14-.52-.27-1.03-.41-1.53-.14-.5-.26-.95-.37-1.33h-.33c-.11.49-.25,1.05-.43,1.68-.18.63-.36,1.28-.55,1.94-.19.67-.38,1.3-.57,1.9l-1.35,4.5h0ZM83.08,276.13v-28.16h12.61l2.58,9.91c.11.35.27.94.47,1.76.2.82.42,1.71.65,2.66.23.95.44,1.84.63,2.66h.33c.14-.6.31-1.32.51-2.15.2-.83.42-1.68.63-2.56.22-.87.41-1.66.57-2.37l2.58-9.91h12.16v28.16h-8.64v-10.15c0-1.09,0-2.22.02-3.38.01-1.16.03-2.26.04-3.3s.02-1.9.02-2.58h-.33c-.08.55-.2,1.19-.35,1.92-.15.74-.31,1.47-.47,2.19-.16.72-.33,1.36-.49,1.9l-3.64,13.38h-6.75l-3.68-13.38c-.14-.55-.29-1.18-.47-1.9-.18-.72-.33-1.45-.47-2.19-.14-.74-.26-1.36-.37-1.88h-.33c.03.68.05,1.54.08,2.58.03,1.04.05,2.13.06,3.27.01,1.15.02,2.26.02,3.36v10.15h-7.98ZM136.04,276.62c-3.19,0-5.92-.55-8.19-1.64-2.26-1.09-4-2.72-5.2-4.89-1.2-2.17-1.8-4.85-1.8-8.04s.6-5.91,1.8-8.06c1.2-2.16,2.93-3.78,5.2-4.87,2.26-1.09,4.99-1.64,8.19-1.64s5.96.55,8.23,1.64c2.26,1.09,4,2.72,5.2,4.87,1.2,2.16,1.8,4.84,1.8,8.06s-.6,5.87-1.8,8.04c-1.2,2.17-2.93,3.8-5.2,4.89-2.26,1.09-5.01,1.64-8.23,1.64h0ZM136.04,269.87c.98,0,1.85-.16,2.6-.47.75-.31,1.38-.76,1.88-1.33.5-.57.88-1.26,1.13-2.07.25-.8.37-1.68.37-2.64v-2.62c0-.95-.12-1.84-.37-2.64-.25-.81-.62-1.49-1.13-2.07-.5-.57-1.13-1.02-1.88-1.33-.75-.31-1.62-.47-2.6-.47s-1.85.16-2.6.47c-.75.31-1.37.76-1.86,1.33-.49.57-.86,1.26-1.11,2.07-.25.8-.37,1.68-.37,2.64v2.62c0,.96.12,1.84.37,2.64.25.81.61,1.49,1.11,2.07.49.57,1.11,1.02,1.86,1.33.75.31,1.62.47,2.6.47h0ZM155.31,276.13v-28.16h7.7l8.76,10.11c.25.27.57.67.98,1.19.41.52.83,1.04,1.25,1.58.42.53.74.96.96,1.29l.2-.08c-.03-.76-.04-1.52-.04-2.27v-11.81h8.23v28.16h-7.65l-9.86-11.26c-.46-.55-.86-1.04-1.19-1.49-.33-.45-.64-.88-.94-1.29l-.2.08c.03.52.04,1.04.04,1.56v12.4h-8.23ZM188.59,276.13v-28.16h12.2c3.22,0,5.92.5,8.1,1.51,2.18,1.01,3.84,2.55,4.97,4.63,1.13,2.07,1.7,4.72,1.7,7.94s-.57,5.83-1.7,7.92c-1.13,2.09-2.79,3.64-4.97,4.65-2.18,1.01-4.88,1.51-8.1,1.51h-12.2ZM197.63,269.38h2.99c.98,0,1.83-.14,2.56-.41.72-.27,1.32-.67,1.78-1.19.46-.52.8-1.16,1.02-1.92.22-.76.33-1.62.33-2.58v-2.46c0-.95-.11-1.81-.33-2.58-.22-.76-.56-1.41-1.02-1.92-.46-.52-1.06-.91-1.78-1.19-.72-.27-1.58-.41-2.56-.41h-2.99v14.65h0ZM239.42,276.62c-2.87,0-5.31-.5-7.35-1.51-2.03-1.01-3.59-2.59-4.67-4.73-1.08-2.14-1.62-4.9-1.62-8.29,0-4.94,1.2-8.6,3.6-10.97,2.4-2.37,5.74-3.56,10.03-3.56,2.32,0,4.41.4,6.28,1.19,1.87.79,3.36,1.99,4.46,3.58,1.1,1.6,1.66,3.62,1.66,6.08h-5.44c0-1.36-.29-2.52-.88-3.46-.59-.94-1.4-1.66-2.44-2.15-1.04-.49-2.22-.74-3.56-.74-1.86,0-3.4.36-4.62,1.08s-2.14,1.79-2.72,3.21c-.59,1.42-.88,3.18-.88,5.28v.9c0,2.13.29,3.9.88,5.32.59,1.42,1.49,2.48,2.7,3.19,1.21.71,2.76,1.06,4.65,1.06,1.42,0,2.66-.24,3.72-.72,1.06-.48,1.89-1.19,2.48-2.13.59-.94.88-2.09.88-3.46h5.24c0,2.46-.55,4.48-1.64,6.08-1.09,1.6-2.57,2.78-4.44,3.56-1.87.78-3.98,1.17-6.32,1.17h0ZM255.66,276.13v-28.08h5.32v23.45h14.08v4.63h-19.4ZM288.31,276.62c-2.46,0-4.57-.4-6.34-1.19-1.77-.79-3.13-2-4.07-3.62-.94-1.62-1.41-3.65-1.41-6.08v-17.68h5.32v17.52c0,2.16.57,3.79,1.7,4.89,1.13,1.11,2.74,1.66,4.81,1.66s3.69-.55,4.85-1.66c1.16-1.11,1.74-2.74,1.74-4.89v-17.52h5.32v17.68c0,2.43-.48,4.45-1.43,6.08-.95,1.62-2.32,2.83-4.09,3.62-1.77.79-3.9,1.19-6.39,1.19h0ZM305.36,276.13v-28.08h15.31c1.5,0,2.84.29,4.03.86,1.19.57,2.12,1.38,2.8,2.41.68,1.04,1.02,2.25,1.02,3.64,0,1.06-.2,2.03-.61,2.91-.41.87-.96,1.6-1.66,2.19-.7.59-1.48,1.03-2.35,1.33v.16c1.04.22,1.96.63,2.78,1.25.82.61,1.46,1.39,1.92,2.33.46.94.7,2.03.7,3.25,0,1.75-.39,3.19-1.17,4.34-.78,1.15-1.81,2-3.11,2.56-1.3.56-2.75.84-4.36.84h-15.31ZM310.68,271.59h9.29c1.12,0,2.04-.31,2.76-.92s1.08-1.58,1.08-2.89c0-.76-.15-1.43-.45-2.01-.3-.57-.76-1.02-1.37-1.33s-1.4-.47-2.35-.47h-8.96v7.61h0ZM310.68,259.51h8.6c.82,0,1.51-.15,2.07-.45.56-.3.98-.71,1.27-1.23.29-.52.43-1.09.43-1.72,0-1.2-.32-2.09-.96-2.66-.64-.57-1.48-.86-2.52-.86h-8.88v6.92Z"/>
    </g>
  </g>
</svg>